{"title":"Happy.Go.Lucky.2008.SWESUB.DVDRip.XviD.Zen_Bud","uid":5797179,"size":1468942336,"categoryP":"video","categoryS":"movies","magnet":"?xt=urn:btih:ab99549da0d4605e74eceb869ab1a3644cee0073&amp;dn=Happy.Go.Lucky.2008.SWESUB.DVDRip.XviD.Zen_Bud&amp;tr=udp%3A%2F%2Ftracker.openbittorrent.com%3A80&amp;tr=udp%3A%2F%2Fopen.demonii.com%3A1337&amp;tr=udp%3A%2F%2Ftracker.coppersurfer.tk%3A6969&amp;tr=udp%3A%2F%2Fexodus.desync.com%3A6969","seeders":0,"leechers":0,"uploader":"Zen_Bud","files":-1,"time":1283106155,"description":"\n******** Happy.Go.Lucky.2008.SWESUB.DVDRip.XviD.Zen_Bud************\n\n\nFormat                           : AVI\nFile size                        : 1.37 GiB\nDuration                         : 1h 53mn\nOverall bit rate                 : 1 727 Kbps\n\n\nVideo\n\nFormat                           : MPEG-4 Visual\nCodec ID/Hint                    : XviD\nDuration                         : 1h 53mn\nBit rate                         : 1 589 Kbps\nWidth                            : 720 pixels\nHeight                           : 398 pixels\nDisplay aspect ratio             : 16:9\nStream size                      : 1.26 GiB (92%)\nWriting library                  : XviD 1.2.1 (UTC 2008-12-04)\n\nAudio\n\nFormat                           : MPEG Audio\nCodec ID/Hint                    : MP3\nDuration                         : 1h 53mn\nBit rate                         : 128 Kbps\nChannel(s)                       : 2 channels\nSampling rate                    : 48.0 KHz\nStream size                      : 104 MiB (7%)\nWriting library                  : LAME3.97 \n\n\n","torrent":{"xt":"urn:btih:ab99549da0d4605e74eceb869ab1a3644cee0073","amp;dn":"Happy.Go.Lucky.2008.SWESUB.DVDRip.XviD.Zen_Bud","amp;tr":["udp%3A%2F%2Ftracker.openbittorrent.com%3A80","udp%3A%2F%2Fopen.demonii.com%3A1337","udp%3A%2F%2Ftracker.coppersurfer.tk%3A6969","udp%3A%2F%2Fexodus.desync.com%3A6969"],"infoHash":"ab99549da0d4605e74eceb869ab1a3644cee0073","infoHashBuffer":{"type":"Buffer","data":[171,153,84,157,160,212,96,94,116,236,235,134,154,177,163,100,76,238,0,115]},"announce":[],"urlList":[]}}